<?xml version="1.0" encoding="UTF-8" standalone="no"?>
<svg
   xmlns:dc="http://purl.org/dc/elements/1.1/"
   xmlns:cc="http://creativecommons.org/ns#"
   xmlns:rdf="http://www.w3.org/1999/02/22-rdf-syntax-ns#"
   xmlns:svg="http://www.w3.org/2000/svg"
   xmlns="http://www.w3.org/2000/svg"
   xmlns:sodipodi="http://sodipodi.sourceforge.net/DTD/sodipodi-0.dtd"
   xmlns:inkscape="http://www.inkscape.org/namespaces/inkscape"
   inkscape:version="1.0beta1 (76ce730, 2019-10-19)"
   sodipodi:docname="Logo Maif.svg"
   viewBox="0 0 499.99999 500"
   height="500"
   width="500"
   xml:space="preserve"
   id="svg10"
   version="1.1"><metadata
     id="metadata16"><rdf:RDF><cc:Work
         rdf:about=""><dc:format>image/svg+xml</dc:format><dc:type
           rdf:resource="http://purl.org/dc/dcmitype/StillImage" /><dc:title></dc:title></cc:Work></rdf:RDF></metadata><defs
     id="defs14" /><sodipodi:namedview
     inkscape:current-layer="g18"
     inkscape:window-maximized="0"
     inkscape:window-y="23"
     inkscape:window-x="0"
     inkscape:cy="-71.434667"
     inkscape:cx="26.588009"
     inkscape:zoom="1.4"
     showgrid="false"
     id="namedview12"
     inkscape:window-height="784"
     inkscape:window-width="1440"
     inkscape:pageshadow="2"
     inkscape:pageopacity="0"
     guidetolerance="10"
     gridtolerance="10"
     objecttolerance="10"
     borderopacity="1"
     inkscape:document-rotation="0"
     bordercolor="#666666"
     pagecolor="#ffffff" /><g
     transform="matrix(1.3333333,0,0,-1.3333333,-373.41199,162.26666)"
     inkscape:label="Logo Maif"
     inkscape:groupmode="layer"
     id="g18"><path
       inkscape:connector-curvature="0"
       id="path580"
       style="opacity:1;fill:#007456;fill-opacity:1;fill-rule:nonzero;stroke:none;stroke-width:7.34301;stop-opacity:1"
       d="M 655.05901,121.7 H 280.059 v -375.00001 h 375.00001 z" /><path
       d="M 319.76484,-182.6691 H 614.83622 L 467.54285,88.699059 Z"
       style="opacity:1;fill:#e2001a;fill-opacity:1;fill-rule:nonzero;stroke:none;stroke-width:7.34301;stop-opacity:1"
       id="path584"
       inkscape:connector-curvature="0" /><g
       transform="matrix(7.3430067,0,0,7.3430067,-1776.4161,-771.94392)"
       id="g8006"><path
         inkscape:connector-curvature="0"
         id="path588"
         style="opacity:1;fill:#ffffff;fill-opacity:1;fill-rule:nonzero;stroke:none;stop-opacity:1"
         d="m 315.2752,97.6909 c -0.133,-0.47 -0.135,-0.991 -0.156,-1.507 v -7.282 c 0.025,-0.508 0.092,-1.012 0.206,-1.486 h -3.687 c 0.125,0.457 0.166,0.948 0.182,1.454 v 2.998 4.032 c -0.073,0.596 -0.065,1.231 -0.242,1.784 l 0.003,0.009 z" /><path
         inkscape:connector-curvature="0"
         id="path592"
         style="opacity:1;fill:#ffffff;fill-opacity:1;fill-rule:nonzero;stroke:none;stop-opacity:1"
         d="m 327.6996,97.6909 0.007,-2.182 v -0.033 c -0.358,0.137 -0.765,0.158 -1.17,0.18 h -3.748 l -1.941,-0.006 v -2.73 h 5.474 c 0.47,0.044 0.971,0.047 1.394,0.206 v -2.511 c -0.435,0.17 -0.924,0.173 -1.412,0.209 l -1.07,0.017 -2.129,-0.002 h -2.23 v -1.849 c 0.025,-0.539 0.071,-1.071 0.18,-1.574 h -3.602 c 0.246,0.773 0.159,1.667 0.169,2.546 v 6.297 c -0.04,0.471 -0.072,0.994 -0.212,1.432 h 8.179 z" /><path
         inkscape:connector-curvature="0"
         id="path596"
         style="opacity:1;fill:#ffffff;fill-opacity:1;fill-rule:nonzero;stroke:none;stop-opacity:1"
         d="m 297.9894,95.2923 v -2.603 -3.637 c 0.026,-0.553 0.076,-1.112 0.21,-1.621 h -1.81 -0.01 -1.766 c 0.242,0.858 0.164,1.726 0.174,2.613 0,0 0.033,5.281 0,5.335 l -2.85,-6.253 c -0.217,-0.546 -0.474,-1.091 -0.563,-1.695 h -2.308 c -0.109,0.572 -0.318,1.111 -0.556,1.627 l -2.949,6.322 0.011,-6.628 c 0.045,-0.46 0.075,-0.901 0.207,-1.321 h -2.357 c 0.15,0.597 0.154,1.223 0.175,1.888 v 6.038 c -0.024,0.808 -0.007,1.625 -0.24,2.369 h -0.009 c -0.004,0.013 0.009,-0.007 0.017,0 h 4.585 c 0.12,-0.776 0.495,-1.393 0.798,-2.093 l 2.09,-4.538 2.004,4.299 v 0.007 c 0.339,0.746 0.72,1.49 0.891,2.325 -0.043,0.031 0.018,-0.007 0,0 h 4.453 c -0.221,-0.758 -0.17,-1.605 -0.197,-2.434" /><path
         inkscape:connector-curvature="0"
         id="path600"
         style="opacity:1;fill:#ffffff;fill-opacity:1;fill-rule:nonzero;stroke:none;stop-opacity:1"
         d="m 304.3075,95.1963 -1.67,-3.895 h 3.376 z m -1.466,1.448 c 0.135,0.343 0.259,0.675 0.297,1.064 h 1.403 2.144 c 0.066,-0.432 0.248,-0.793 0.412,-1.18 l 4.24,-9.112 h -3.76 c -0.035,0.151 -0.061,0.316 -0.112,0.471 -0.184,0.615 -0.46,1.232 -0.718,1.815 h -0.033 -4.023 -0.83 c -0.246,-0.389 -0.372,-0.841 -0.561,-1.263 -0.12,-0.321 -0.208,-0.685 -0.288,-1.023 h -2.335 l 1.253,2.757 z" /></g></g></svg>
